HIERARCHY
ROOT Hips
{
	OFFSET 0.000000 100.481300 0.000000
	CHANNELS 6 Xposition Yposition Zposition Xrotation Yrotation Zrotation 
	JOINT Spine
	{
		OFFSET -0.279200 12.230698 -2.892100
		CHANNELS 3 Xrotation Yrotation Zrotation
		JOINT Spine1
		{
			OFFSET -0.232667 10.192268 -1.242267
			CHANNELS 3 Xrotation Yrotation Zrotation
			JOINT Spine1_split
			{
				OFFSET -0.232667 10.192268 -1.242267
				CHANNELS 3 Xrotation Yrotation Zrotation
				JOINT Spine2
				{
					OFFSET -0.232667 10.192268 -1.242267
					CHANNELS 3 Xrotation Yrotation Zrotation
					JOINT Neck
					{
						OFFSET -0.418800 17.814194 8.416900
						CHANNELS 3 Xrotation Yrotation Zrotation
						JOINT Head
						{
							OFFSET 0.000000 7.031097 3.806800
							CHANNELS 3 Xrotation Yrotation Zrotation
							JOINT HeadTop_End
							{
								OFFSET 0.000000 24.646606 12.978600
								CHANNELS 3 Xrotation Yrotation Zrotation
								End Site
								{
									OFFSET 0.000000 0.000000 0.000000
								}
							}
						}
					}
					JOINT LeftShoulder
					{
						OFFSET 8.476499 7.247704 -3.868750
						CHANNELS 3 Xrotation Yrotation Zrotation
						JOINT LeftShoulder_split
						{
							OFFSET 8.476499 7.247704 -3.868750
							CHANNELS 3 Xrotation Yrotation Zrotation
							JOINT LeftArm
							{
								OFFSET 9.308998 -2.777710 0.208600
								CHANNELS 3 Xrotation Yrotation Zrotation
								JOINT LeftForeArm
								{
									OFFSET 29.972298 0.000000 0.000000
									CHANNELS 3 Xrotation Yrotation Zrotation
									JOINT LeftHand
									{
										OFFSET 26.026505 0.000000 0.000000
										CHANNELS 3 Xrotation Yrotation Zrotation
										JOINT LeftHandThumb1
										{
											OFFSET 12.240501 -7.147949 9.207150
											CHANNELS 3 Xrotation Yrotation Zrotation
											JOINT LeftHandThumb2
											{
												OFFSET 4.138618 -2.389435 2.389433
												CHANNELS 3 Xrotation Yrotation Zrotation
												JOINT LeftHandThumb3
												{
													OFFSET 2.726913 -1.574387 1.574386
													CHANNELS 3 Xrotation Yrotation Zrotation
													JOINT LeftHandThumb4
													{
														OFFSET 3.941010 -2.275345 2.275342
														CHANNELS 3 Xrotation Yrotation Zrotation
														End Site
														{
															OFFSET 0.000000 0.000000 0.000000
														}
													}
												}
											}
										}
										JOINT LeftHandIndex1
										{
											OFFSET 24.424698 -1.985611 5.953459
											CHANNELS 3 Xrotation Yrotation Zrotation
											JOINT LeftHandIndex2
											{
												OFFSET 6.426697 0.000000 0.000000
												CHANNELS 3 Xrotation Yrotation Zrotation
												JOINT LeftHandIndex3
												{
													OFFSET 5.337898 0.000000 0.000000
													CHANNELS 3 Xrotation Yrotation Zrotation
													JOINT LeftHandIndex4
													{
														OFFSET 4.409401 0.000000 0.000000
														CHANNELS 3 Xrotation Yrotation Zrotation
														End Site
														{
															OFFSET 0.000000 0.000000 0.000000
														}
													}
												}
											}
										}
										JOINT LeftHandMiddle1
										{
											OFFSET 23.810104 0.000000 0.000000
											CHANNELS 3 Xrotation Yrotation Zrotation
											JOINT LeftHandMiddle2
											{
												OFFSET 7.176498 0.000000 0.000000
												CHANNELS 3 Xrotation Yrotation Zrotation
												JOINT LeftHandMiddle3
												{
													OFFSET 6.774902 0.000000 0.000000
													CHANNELS 3 Xrotation Yrotation Zrotation
													JOINT LeftHandMiddle4
													{
														OFFSET 5.403328 0.000000 0.000000
														CHANNELS 3 Xrotation Yrotation Zrotation
														End Site
														{
															OFFSET 0.000000 0.000000 0.000000
														}
													}
												}
											}
										}
										JOINT LeftHandRing1
										{
											OFFSET 22.908401 -0.839279 -6.020567
											CHANNELS 3 Xrotation Yrotation Zrotation
											JOINT LeftHandRing2
											{
												OFFSET 6.337502 0.000000 0.000000
												CHANNELS 3 Xrotation Yrotation Zrotation
												JOINT LeftHandRing3
												{
													OFFSET 5.779297 0.000000 0.000000
													CHANNELS 3 Xrotation Yrotation Zrotation
													JOINT LeftHandRing4
													{
														OFFSET 4.965698 0.000000 0.000000
														CHANNELS 3 Xrotation Yrotation Zrotation
														End Site
														{
															OFFSET 0.000000 0.000000 0.000000
														}
													}
												}
											}
										}
										JOINT LeftHandPinky1
										{
											OFFSET 20.037003 -1.530319 -10.950146
											CHANNELS 3 Xrotation Yrotation Zrotation
											JOINT LeftHandPinky2
											{
												OFFSET 5.254700 0.000000 0.000000
												CHANNELS 3 Xrotation Yrotation Zrotation
												JOINT LeftHandPinky3
												{
													OFFSET 4.810204 0.000000 0.000000
													CHANNELS 3 Xrotation Yrotation Zrotation
													JOINT LeftHandPinky4
													{
														OFFSET 3.647202 0.000000 0.000000
														CHANNELS 3 Xrotation Yrotation Zrotation
														End Site
														{
															OFFSET 0.000000 0.000000 0.000000
														}
													}
												}
											}
										}
									}
								}
							}
						}
					}
					JOINT RightShoulder
					{
						OFFSET -7.570500 7.247704 -3.868750
						CHANNELS 3 Xrotation Yrotation Zrotation
						JOINT RightShoulder_split
						{
							OFFSET -7.570500 7.247704 -3.868750
							CHANNELS 3 Xrotation Yrotation Zrotation
							JOINT RightArm
							{
								OFFSET -9.308998 -2.777710 0.208500
								CHANNELS 3 Xrotation Yrotation Zrotation
								JOINT RightForeArm
								{
									OFFSET -29.972300 0.000000 0.000000
									CHANNELS 3 Xrotation Yrotation Zrotation
									JOINT RightHand
									{
										OFFSET -26.026505 0.000000 0.000000
										CHANNELS 3 Xrotation Yrotation Zrotation
										JOINT RightHandThumb1
										{
											OFFSET -12.240601 -7.148026 9.207092
											CHANNELS 3 Xrotation Yrotation Zrotation
											JOINT RightHandThumb2
											{
												OFFSET -4.138618 -2.389435 2.389433
												CHANNELS 3 Xrotation Yrotation Zrotation
												JOINT RightHandThumb3
												{
													OFFSET -2.726974 -1.574417 1.574421
													CHANNELS 3 Xrotation Yrotation Zrotation
													JOINT RightHandThumb4
													{
														OFFSET -3.941010 -2.275345 2.275343
														CHANNELS 3 Xrotation Yrotation Zrotation
														End Site
														{
															OFFSET 0.000000 0.000000 0.000000
														}
													}
												}
											}
										}
										JOINT RightHandIndex1
										{
											OFFSET -24.424698 -1.985657 5.953444
											CHANNELS 3 Xrotation Yrotation Zrotation
											JOINT RightHandIndex2
											{
												OFFSET -6.426697 0.000000 0.000000
												CHANNELS 3 Xrotation Yrotation Zrotation
												JOINT RightHandIndex3
												{
													OFFSET -5.337898 0.000000 0.000000
													CHANNELS 3 Xrotation Yrotation Zrotation
													JOINT RightHandIndex4
													{
														OFFSET -4.409401 0.000000 0.000000
														CHANNELS 3 Xrotation Yrotation Zrotation
														End Site
														{
															OFFSET 0.000000 0.000000 0.000000
														}
													}
												}
											}
										}
										JOINT RightHandMiddle1
										{
											OFFSET -23.810097 0.000000 0.000000
											CHANNELS 3 Xrotation Yrotation Zrotation
											JOINT RightHandMiddle2
											{
												OFFSET -7.176498 0.000000 0.000000
												CHANNELS 3 Xrotation Yrotation Zrotation
												JOINT RightHandMiddle3
												{
													OFFSET -6.774902 0.000000 0.000000
													CHANNELS 3 Xrotation Yrotation Zrotation
													JOINT RightHandMiddle4
													{
														OFFSET -5.403328 0.000000 0.000000
														CHANNELS 3 Xrotation Yrotation Zrotation
														End Site
														{
															OFFSET 0.000000 0.000000 0.000000
														}
													}
												}
											}
										}
										JOINT RightHandRing1
										{
											OFFSET -22.908302 -0.839325 -6.020576
											CHANNELS 3 Xrotation Yrotation Zrotation
											JOINT RightHandRing2
											{
												OFFSET -6.337502 0.000000 0.000000
												CHANNELS 3 Xrotation Yrotation Zrotation
												JOINT RightHandRing3
												{
													OFFSET -5.779297 0.000000 0.000000
													CHANNELS 3 Xrotation Yrotation Zrotation
													JOINT RightHandRing4
													{
														OFFSET -4.965698 0.000000 0.000000
														CHANNELS 3 Xrotation Yrotation Zrotation
														End Site
														{
															OFFSET 0.000000 0.000000 0.000000
														}
													}
												}
											}
										}
										JOINT RightHandPinky1
										{
											OFFSET -20.037003 -1.530334 -10.950259
											CHANNELS 3 Xrotation Yrotation Zrotation
											JOINT RightHandPinky2
											{
												OFFSET -5.254700 0.000000 0.000000
												CHANNELS 3 Xrotation Yrotation Zrotation
												JOINT RightHandPinky3
												{
													OFFSET -4.810204 0.000000 0.000000
													CHANNELS 3 Xrotation Yrotation Zrotation
													JOINT RightHandPinky4
													{
														OFFSET -3.647202 0.000000 0.000000
														CHANNELS 3 Xrotation Yrotation Zrotation
														End Site
														{
															OFFSET 0.000000 0.000000 0.000000
														}
													}
												}
											}
										}
									}
								}
							}
						}
					}
				}
			}
		}
	}
	JOINT LeftUpLeg
	{
		OFFSET 15.427100 -6.655098 0.678600
		CHANNELS 3 Xrotation Yrotation Zrotation
		JOINT LeftLeg
		{
			OFFSET 4.081073 -39.591068 13.024000
			CHANNELS 3 Xrotation Yrotation Zrotation
			JOINT LeftFoot
			{
				OFFSET -4.081074 -37.707932 -15.979700
				CHANNELS 3 Xrotation Yrotation Zrotation
				JOINT LeftToeBase
				{
					OFFSET 5.346399 -15.068900 20.645000
					CHANNELS 3 Xrotation Yrotation Zrotation
					JOINT LeftToe_End
					{
						OFFSET 2.754700 0.931300 11.300900
						CHANNELS 3 Xrotation Yrotation Zrotation
						End Site
						{
							OFFSET 0.000000 0.000000 0.000000
						}
					}
				}
			}
		}
	}
	JOINT RightUpLeg
	{
		OFFSET -15.569500 -6.655098 0.678600
		CHANNELS 3 Xrotation Yrotation Zrotation
		JOINT RightLeg
		{
			OFFSET -4.081825 -39.591045 13.023800
			CHANNELS 3 Xrotation Yrotation Zrotation
			JOINT RightFoot
			{
				OFFSET 4.081824 -37.707954 -15.979600
				CHANNELS 3 Xrotation Yrotation Zrotation
				JOINT RightToeBase
				{
					OFFSET -5.346400 -15.068900 20.645000
					CHANNELS 3 Xrotation Yrotation Zrotation
					JOINT RightToe_End
					{
						OFFSET -2.754700 0.931300 11.300900
						CHANNELS 3 Xrotation Yrotation Zrotation
						End Site
						{
							OFFSET 0.000000 0.000000 0.000000
						}
					}
				}
			}
		}
	}
}
MOTION
Frames: 4
Frame Time: 0.016667
0.070040 84.194809 6.376245 -13.182134 -1.786042 -5.130267 5.922163 -0.694470 3.094664 9.021538 -0.430000 -0.455594 0.000000 0.000000 0.000000 9.028560 -0.103888 -0.473627 15.499586 0.680417 0.863641 -2.573559 0.818021 5.726065 -0.000001 -0.000000 -0.000000 0.681784 3.908469 -11.397479 0.000000 0.000000 0.000000 74.323550 -65.285489 4.646525 -0.000004 -18.010078 -0.000007 -25.659134 7.272758 -3.768742 21.734266 5.841448 -2.497397 -16.162765 18.936377 19.036138 -9.576530 8.451316 10.577058 0.000000 0.000002 -0.000002 0.152622 1.444567 -12.061579 0.086634 1.091026 -9.079565 0.021684 0.547213 -4.539377 -0.000003 -0.000001 0.000001 0.152218 1.442682 -12.045588 0.086934 1.092921 -9.095567 0.021683 0.547212 -4.539366 0.000001 0.000001 0.000001 0.152622 1.444567 -12.061579 0.086634 1.091026 -9.079567 0.021682 0.547197 -4.539383 0.000003 -0.000001 0.000002 0.985186 5.412800 -11.600966 0.078383 -2.964060 -9.583910 0.021690 0.547221 -4.539371 0.000000 -0.000000 -0.000002 1.412995 0.332766 10.813721 0.000000 0.000000 0.000000 8.850511 40.127177 57.894036 -0.000017 26.003468 0.000002 37.130356 -9.963356 12.845700 -0.389729 -6.638717 -15.665594 8.907274 -22.771342 0.157751 0.754311 -6.942794 -2.431198 0.000000 -0.000005 0.000000 0.174545 -1.551256 12.839273 0.140309 -1.392631 11.506932 0.035159 -0.699839 5.752615 -0.000001 -0.000000 -0.000000 0.174545 -1.551256 12.839272 0.140309 -1.392631 11.506930 0.035155 -0.699842 5.752607 -0.000001 -0.000000 0.000001 0.174547 -1.551254 12.839275 0.140307 -1.392635 11.506925 0.035159 -0.699839 5.752615 0.000001 0.000000 -0.000001 0.174545 -1.551256 12.839272 0.140308 -1.392633 11.506932 0.035159 -0.699838 5.752616 0.000001 0.000000 -0.000002 -31.800907 21.166162 9.748439 41.635518 -7.345018 10.807331 0.062823 -9.118414 0.055937 -0.920818 -0.000003 0.000002 -0.000000 -0.000000 -0.000000 -21.879060 -35.807260 0.445459 38.486084 7.972940 -10.860386 -3.003822 7.825370 -6.005360 -0.000021 0.000002 -0.000000 0.000000 -0.000000 -0.000000 
0.085255 84.196457 6.376257 -13.185906 -1.824003 -5.113441 5.921167 -0.690292 3.088030 9.018472 -0.421016 -0.454876 0.000000 0.000000 0.000000 9.025359 -0.094396 -0.473342 15.500809 0.683414 0.851795 -2.570582 0.837382 5.719965 0.000001 -0.000000 -0.000000 0.682939 3.924065 -11.425493 0.000000 0.000000 0.000000 74.279721 -65.233894 4.636007 0.000005 -18.066236 -0.000001 -25.471775 7.330765 -3.951211 21.734272 5.841449 -2.497397 -16.162767 18.936377 19.036140 -9.576527 8.451316 10.577060 -0.000002 0.000002 0.000000 0.152621 1.444567 -12.061579 0.086635 1.091026 -9.079569 0.021683 0.547212 -4.539377 -0.000002 -0.000001 0.000001 0.152218 1.442681 -12.045587 0.086936 1.092921 -9.095569 0.021681 0.547211 -4.539364 -0.000001 -0.000002 0.000001 0.152621 1.444567 -12.061579 0.086633 1.091026 -9.079567 0.021685 0.547198 -4.539383 0.000001 0.000000 -0.000000 0.985186 5.412799 -11.600966 0.078382 -2.964060 -9.583910 0.021692 0.547222 -4.539374 0.000000 -0.000001 0.000001 1.413248 0.336094 10.799354 0.000000 0.000000 0.000000 8.846306 40.120477 57.885034 -0.000001 26.006517 0.000006 37.193051 -9.934874 12.879310 -0.389729 -6.638717 -15.665596 8.907272 -22.771342 0.157750 0.754313 -6.942794 -2.431198 0.000000 -0.000000 -0.000001 0.174546 -1.551256 12.839275 0.140308 -1.392632 11.506930 0.035157 -0.699838 5.752613 0.000001 0.000000 0.000000 0.174546 -1.551256 12.839273 0.140307 -1.392633 11.506928 0.035155 -0.699842 5.752606 -0.000000 -0.000000 0.000002 0.174548 -1.551253 12.839277 0.140305 -1.392635 11.506926 0.035158 -0.699839 5.752613 -0.000000 0.000000 -0.000001 0.174546 -1.551256 12.839272 0.140307 -1.392633 11.506929 0.035158 -0.699837 5.752616 0.000002 0.000000 0.000001 -31.788185 21.228216 9.746321 41.626776 -7.346645 10.807195 0.057345 -9.130002 0.069815 -0.918802 -0.000002 0.000000 0.000000 0.000000 -0.000000 -21.894011 -35.706395 0.449863 38.492371 7.969668 -10.862182 -2.995509 7.779750 -5.980248 -0.000021 0.000002 -0.000000 -0.000000 -0.000000 -0.000000 
0.099158 84.197182 6.376657 -13.189937 -1.859301 -5.095103 5.920274 -0.686457 3.078781 9.015933 -0.413234 -0.454230 0.000000 0.000000 0.000000 9.022704 -0.086283 -0.473040 15.501751 0.686838 0.839503 -2.569939 0.854904 5.720951 0.000002 -0.000000 -0.000000 0.684058 3.939020 -11.452423 0.000000 0.000000 0.000000 74.202485 -65.177811 4.592538 0.000014 -18.130785 -0.000007 -25.270469 7.391026 -4.135354 21.734272 5.841448 -2.497397 -16.162767 18.936373 19.036135 -9.576526 8.451318 10.577064 -0.000001 -0.000002 -0.000001 0.152620 1.444567 -12.061575 0.086634 1.091027 -9.079568 0.021683 0.547213 -4.539376 -0.000000 0.000001 0.000001 0.152219 1.442682 -12.045587 0.086933 1.092920 -9.095566 0.021685 0.547213 -4.539365 0.000002 -0.000001 0.000001 0.152620 1.444567 -12.061577 0.086633 1.091027 -9.079568 0.021686 0.547198 -4.539383 -0.000001 -0.000000 0.000002 0.985187 5.412799 -11.600966 0.078385 -2.964060 -9.583910 0.021693 0.547221 -4.539373 0.000002 0.000000 0.000001 1.414564 0.343947 10.791923 0.000000 0.000000 0.000000 8.851292 40.106645 57.862740 -0.000000 26.024373 0.000001 37.255779 -9.909330 12.917783 -0.389730 -6.638716 -15.665594 8.907273 -22.771345 0.157750 0.754311 -6.942801 -2.431199 0.000000 -0.000004 -0.000001 0.174546 -1.551255 12.839273 0.140309 -1.392631 11.506932 0.035159 -0.699839 5.752618 0.000000 -0.000000 0.000000 0.174546 -1.551255 12.839273 0.140310 -1.392632 11.506933 0.035155 -0.699842 5.752611 -0.000002 0.000000 0.000001 0.174547 -1.551254 12.839278 0.140307 -1.392635 11.506924 0.035158 -0.699839 5.752616 -0.000001 0.000001 -0.000001 0.174546 -1.551255 12.839273 0.140309 -1.392633 11.506932 0.035159 -0.699838 5.752615 -0.000001 -0.000000 0.000001 -31.774744 21.287085 9.741614 41.619122 -7.348306 10.807013 0.051763 -9.140140 0.082675 -0.917046 -0.000000 -0.000001 -0.000000 0.000000 -0.000000 -21.912051 -35.610223 0.449279 38.501766 7.965309 -10.865017 -2.988676 7.743502 -5.955170 -0.000021 0.000003 -0.000000 0.000000 0.000002 0.000000 
0.111092 84.196465 6.377617 -13.194079 -1.890777 -5.075480 5.919420 -0.683050 3.066713 9.013796 -0.406899 -0.453622 0.000000 0.000000 0.000000 9.020474 -0.079824 -0.472674 15.502865 0.690590 0.827108 -2.571724 0.869699 5.729453 0.000002 0.000001 -0.000000 0.685117 3.952922 -11.477669 0.000000 0.000000 0.000000 74.095825 -65.119215 4.518444 -0.000007 -18.201454 -0.000000 -25.061817 7.453132 -4.314702 21.734270 5.841447 -2.497397 -16.162765 18.936378 19.036138 -9.576526 8.451318 10.577058 0.000000 -0.000001 -0.000001 0.152621 1.444567 -12.061576 0.086636 1.091027 -9.079569 0.021685 0.547212 -4.539374 -0.000000 -0.000000 0.000001 0.152217 1.442681 -12.045586 0.086933 1.092920 -9.095567 0.021687 0.547213 -4.539367 -0.000001 -0.000002 0.000003 0.152621 1.444567 -12.061576 0.086637 1.091026 -9.079568 0.021685 0.547197 -4.539383 0.000001 0.000002 0.000002 0.985188 5.412799 -11.600967 0.078383 -2.964061 -9.583909 0.021692 0.547221 -4.539374 0.000000 0.000000 0.000004 1.416782 0.355709 10.790261 0.000000 0.000000 0.000000 8.863889 40.086565 57.830597 -0.000001 26.055118 0.000006 37.317022 -9.887076 12.959784 -0.389730 -6.638718 -15.665594 8.907272 -22.771342 0.157749 0.754311 -6.942792 -2.431194 0.000001 0.000000 -0.000001 0.174546 -1.551256 12.839272 0.140307 -1.392631 11.506931 0.035158 -0.699838 5.752616 0.000001 0.000000 -0.000000 0.174546 -1.551256 12.839272 0.140307 -1.392633 11.506931 0.035154 -0.699842 5.752611 0.000001 0.000000 -0.000003 0.174547 -1.551254 12.839277 0.140307 -1.392635 11.506925 0.035158 -0.699839 5.752615 0.000000 0.000000 0.000000 0.174546 -1.551256 12.839272 0.140307 -1.392635 11.506930 0.035159 -0.699837 5.752615 -0.000000 0.000001 -0.000001 -31.761329 21.340774 9.734393 41.613522 -7.349855 10.806841 0.045912 -9.148466 0.094011 -0.915556 0.000000 -0.000005 -0.000000 0.000000 -0.000000 -21.933687 -35.521929 0.442667 38.515170 7.959542 -10.868993 -2.983994 7.720016 -5.930805 -0.000021 0.000003 -0.000000 0.000000 0.000002 0.000000 
